HIERARCHY
ROOT Hips
{
	OFFSET 0.000000 83.214638 0.000000
	CHANNELS 6 Xposition Yposition Zposition Xrotation Yrotation Zrotation
	JOINT Pelvis
	{
		OFFSET 0.000000 0.000000 0.000000
		CHANNELS 3 Xrotation Yrotation Zrotation
		JOINT LeftUpLeg
		{
			OFFSET 8.479700 -4.795502 -0.379100
			CHANNELS 3 Xrotation Yrotation Zrotation
			JOINT LeftLeg
			{
				OFFSET 0.024144 -32.555107 0.112900
				CHANNELS 3 Xrotation Yrotation Zrotation
				JOINT LeftFoot
				{
					OFFSET -0.024144 -32.638630 -3.012600
					CHANNELS 3 Xrotation Yrotation Zrotation
					JOINT LeftToeBase
					{
						OFFSET 0.970200 -13.225400 11.864200
						CHANNELS 3 Xrotation Yrotation Zrotation
						End Site
						{
							OFFSET 0.000000 12.319262 0.000000
						}
					}
					JOINT LFootTongue
					{
						OFFSET 1.142400 -1.059800 6.665200
						CHANNELS 3 Xrotation Yrotation Zrotation
						End Site
						{
							OFFSET 0.000000 12.319262 0.000000
						}
					}
				}
				JOINT LeftPantLeg
				{
					OFFSET 0.918482 -16.533964 -2.284700
					CHANNELS 3 Xrotation Yrotation Zrotation
					End Site
					{
						OFFSET 0.350399 24.744368 0.000000
					}
				}
			}
		}
		JOINT RightUpLeg
		{
			OFFSET -8.479700 -4.795502 -0.379100
			CHANNELS 3 Xrotation Yrotation Zrotation
			JOINT RightLeg
			{
				OFFSET -0.023144 -32.555092 0.112900
				CHANNELS 3 Xrotation Yrotation Zrotation
				JOINT RightFoot
				{
					OFFSET 0.023144 -32.638641 -3.012700
					CHANNELS 3 Xrotation Yrotation Zrotation
					JOINT RightToeBase
					{
						OFFSET -0.970200 -13.225400 11.864200
						CHANNELS 3 Xrotation Yrotation Zrotation
						End Site
						{
							OFFSET 0.000000 12.319244 0.000000
						}
					}
					JOINT RFootTongue
					{
						OFFSET -1.142200 -1.059800 6.665200
						CHANNELS 3 Xrotation Yrotation Zrotation
						End Site
						{
							OFFSET 0.000000 12.319243 0.000000
						}
					}
				}
				JOINT RightPantLeg
				{
					OFFSET -0.919482 -16.533978 -2.284800
					CHANNELS 3 Xrotation Yrotation Zrotation
					End Site
					{
						OFFSET -0.350400 24.744419 0.000000
					}
				}
			}
		}
	}
	JOINT Spine
	{
		OFFSET 0.000000 7.722000 1.166200
		CHANNELS 3 Xrotation Yrotation Zrotation
		JOINT Spine1
		{
			OFFSET 0.000000 12.024101 0.248800
			CHANNELS 3 Xrotation Yrotation Zrotation
			JOINT Spine2
			{
				OFFSET 0.000000 11.502998 -0.491200
				CHANNELS 3 Xrotation Yrotation Zrotation
				JOINT Neck
				{
					OFFSET 0.000000 18.430702 -3.123100
					CHANNELS 3 Xrotation Yrotation Zrotation
					JOINT Head
					{
						OFFSET 0.000000 9.051102 1.034000
						CHANNELS 3 Xrotation Yrotation Zrotation
						JOINT HairB
						{
							OFFSET 0.208400 24.786102 24.822300
							CHANNELS 3 Xrotation Yrotation Zrotation
							End Site
							{
								OFFSET 0.000000 32.263779 0.000000
							}
						}
						JOINT HairA
						{
							OFFSET -7.081100 24.428299 23.196600
							CHANNELS 3 Xrotation Yrotation Zrotation
							End Site
							{
								OFFSET 0.000000 32.263779 0.000000
							}
						}
						JOINT Hat
						{
							OFFSET 16.728800 15.048294 -15.439601
							CHANNELS 3 Xrotation Yrotation Zrotation
							End Site
							{
								OFFSET 0.000000 32.263779 0.000000
							}
						}
					}
				}
				JOINT LeftShoulder
				{
					OFFSET 6.197800 13.665199 -4.064700
					CHANNELS 3 Xrotation Yrotation Zrotation
					JOINT LeftArm
					{
						OFFSET 7.778100 -0.187103 -1.709300
						CHANNELS 3 Xrotation Yrotation Zrotation
						JOINT LeftForeArm
						{
							OFFSET 22.049376 0.000000 0.000000
							CHANNELS 3 Xrotation Yrotation Zrotation
							JOINT LeftHand
							{
								OFFSET 23.009392 0.000000 0.000000
								CHANNELS 3 Xrotation Yrotation Zrotation
								JOINT LeftHandThumb1
								{
									OFFSET 3.507191 -2.063065 3.133727
									CHANNELS 3 Xrotation Yrotation Zrotation
									JOINT LeftHandThumb2
									{
										OFFSET 3.101337 -1.790558 1.790558
										CHANNELS 3 Xrotation Yrotation Zrotation
										JOINT LeftHandThumb3
										{
											OFFSET 3.058640 -1.765907 1.765906
											CHANNELS 3 Xrotation Yrotation Zrotation
											End Site
											{
												OFFSET -0.415260 3.926476 -0.049563
											}
										}
									}
								}
								JOINT LeftHandIndex1
								{
									OFFSET 11.334419 -0.901459 3.706815
									CHANNELS 3 Xrotation Yrotation Zrotation
									JOINT LeftHandIndex2
									{
										OFFSET 3.283112 0.000000 0.000000
										CHANNELS 3 Xrotation Yrotation Zrotation
										JOINT LeftHandIndex3
										{
											OFFSET 3.323853 0.000000 0.000000
											CHANNELS 3 Xrotation Yrotation Zrotation
											End Site
											{
												OFFSET -1.135597 3.097809 0.402452
											}
										}
									}
								}
								JOINT LeftHandMiddle1
								{
									OFFSET 11.335861 0.000000 0.000000
									CHANNELS 3 Xrotation Yrotation Zrotation
									JOINT LeftHandMiddle2
									{
										OFFSET 3.410492 0.000000 0.000000
										CHANNELS 3 Xrotation Yrotation Zrotation
										JOINT LeftHandMiddle3
										{
											OFFSET 3.312172 0.000000 0.000000
											CHANNELS 3 Xrotation Yrotation Zrotation
											End Site
											{
												OFFSET -1.150200 3.080154 0.400270
											}
										}
									}
								}
								JOINT LeftHandRing1
								{
									OFFSET 11.514786 -0.013176 -3.003090
									CHANNELS 3 Xrotation Yrotation Zrotation
									JOINT LeftHandRing2
									{
										OFFSET 3.053307 0.000000 0.000000
										CHANNELS 3 Xrotation Yrotation Zrotation
										JOINT LeftHandRing3
										{
											OFFSET 3.295807 0.000000 0.000000
											CHANNELS 3 Xrotation Yrotation Zrotation
											End Site
											{
												OFFSET -1.281006 3.013344 0.375733
											}
										}
									}
								}
								JOINT LeftHandPinky1
								{
									OFFSET 10.518692 -0.960396 -5.730441
									CHANNELS 3 Xrotation Yrotation Zrotation
									JOINT LeftHandPinky2
									{
										OFFSET 2.861649 0.000000 0.000000
										CHANNELS 3 Xrotation Yrotation Zrotation
										JOINT LeftHandPinky3
										{
											OFFSET 2.863380 0.000000 0.000000
											CHANNELS 3 Xrotation Yrotation Zrotation
											End Site
											{
												OFFSET -0.843597 2.711159 0.369971
											}
										}
									}
								}
							}
							JOINT LSleeve
							{
								OFFSET 6.676277 -0.344902 -1.011730
								CHANNELS 3 Xrotation Yrotation Zrotation
								End Site
								{
									OFFSET 0.000000 14.885353 0.000000
								}
							}
						}
					}
				}
				JOINT RightShoulder
				{
					OFFSET -6.197800 13.665199 -4.064700
					CHANNELS 3 Xrotation Yrotation Zrotation
					JOINT RightArm
					{
						OFFSET -7.778100 -0.187103 -1.709300
						CHANNELS 3 Xrotation Yrotation Zrotation
						JOINT RightForeArm
						{
							OFFSET -22.049376 0.000000 0.000000
							CHANNELS 3 Xrotation Yrotation Zrotation
							JOINT RightHand
							{
								OFFSET -23.009392 0.000000 0.000000
								CHANNELS 3 Xrotation Yrotation Zrotation
								JOINT RightHandThumb1
								{
									OFFSET -3.507191 -2.063065 3.133727
									CHANNELS 3 Xrotation Yrotation Zrotation
									JOINT RightHandThumb2
									{
										OFFSET -3.101337 -1.790558 1.790558
										CHANNELS 3 Xrotation Yrotation Zrotation
										JOINT RightHandThumb3
										{
											OFFSET -3.058640 -1.765907 1.765906
											CHANNELS 3 Xrotation Yrotation Zrotation
											End Site
											{
												OFFSET 0.415260 3.926476 -0.049563
											}
										}
									}
								}
								JOINT RightHandIndex1
								{
									OFFSET -11.334419 -0.901459 3.706815
									CHANNELS 3 Xrotation Yrotation Zrotation
									JOINT RightHandIndex2
									{
										OFFSET -3.283112 0.000000 0.000000
										CHANNELS 3 Xrotation Yrotation Zrotation
										JOINT RightHandIndex3
										{
											OFFSET -3.323853 0.000000 0.000000
											CHANNELS 3 Xrotation Yrotation Zrotation
											End Site
											{
												OFFSET 1.135597 3.097809 0.402452
											}
										}
									}
								}
								JOINT RightHandMiddle1
								{
									OFFSET -11.335861 0.000000 0.000000
									CHANNELS 3 Xrotation Yrotation Zrotation
									JOINT RightHandMiddle2
									{
										OFFSET -3.410492 0.000000 0.000000
										CHANNELS 3 Xrotation Yrotation Zrotation
										JOINT RightHandMiddle3
										{
											OFFSET -3.312172 0.000000 0.000000
											CHANNELS 3 Xrotation Yrotation Zrotation
											End Site
											{
												OFFSET 1.150200 3.080154 0.400270
											}
										}
									}
								}
								JOINT RightHandRing1
								{
									OFFSET -11.514786 -0.013176 -3.003090
									CHANNELS 3 Xrotation Yrotation Zrotation
									JOINT RightHandRing2
									{
										OFFSET -3.053307 0.000000 0.000000
										CHANNELS 3 Xrotation Yrotation Zrotation
										JOINT RightHandRing3
										{
											OFFSET -3.295807 0.000000 0.000000
											CHANNELS 3 Xrotation Yrotation Zrotation
											End Site
											{
												OFFSET 1.281006 3.013344 0.375733
											}
										}
									}
								}
								JOINT RightHandPinky1
								{
									OFFSET -10.518692 -0.960396 -5.730441
									CHANNELS 3 Xrotation Yrotation Zrotation
									JOINT RightHandPinky2
									{
										OFFSET -2.861649 0.000000 0.000000
										CHANNELS 3 Xrotation Yrotation Zrotation
										JOINT RightHandPinky3
										{
											OFFSET -2.863380 0.000000 0.000000
											CHANNELS 3 Xrotation Yrotation Zrotation
											End Site
											{
												OFFSET 0.843597 2.711159 0.369971
											}
										}
									}
								}
							}
							JOINT RSleeve
							{
								OFFSET -6.676277 -0.344902 -1.011730
								CHANNELS 3 Xrotation Yrotation Zrotation
								End Site
								{
									OFFSET 0.000000 14.885353 0.000000
								}
							}
						}
					}
				}
				JOINT Backpack
				{
					OFFSET 0.000000 -2.471497 36.677502
					CHANNELS 3 Xrotation Yrotation Zrotation
					End Site
					{
						OFFSET 0.000000 20.427315 0.000000
					}
				}
				JOINT Hood
				{
					OFFSET 0.000000 18.754097 -10.431000
					CHANNELS 3 Xrotation Yrotation Zrotation
					JOINT Hood1
					{
						OFFSET 0.000000 -5.011002 -7.685901
						CHANNELS 3 Xrotation Yrotation Zrotation
						End Site
						{
							OFFSET 0.000000 9.175140 0.000000
						}
					}
				}
				JOINT LHoodieString
				{
					OFFSET 5.250500 16.397697 3.089900
					CHANNELS 3 Xrotation Yrotation Zrotation
					JOINT LHoodieString1
					{
						OFFSET 0.257700 -6.364304 3.694600
						CHANNELS 3 Xrotation Yrotation Zrotation
						JOINT LHoodieString2
						{
							OFFSET 0.000000 -9.643799 2.679100
							CHANNELS 3 Xrotation Yrotation Zrotation
							End Site
							{
								OFFSET 0.000000 10.009018 0.000000
							}
						}
					}
				}
				JOINT RHoodieString
				{
					OFFSET -5.250500 16.397697 3.089900
					CHANNELS 3 Xrotation Yrotation Zrotation
					JOINT RHoodieString1
					{
						OFFSET -0.257700 -6.364304 3.694600
						CHANNELS 3 Xrotation Yrotation Zrotation
						JOINT RHoodieString2
						{
							OFFSET 0.000000 -9.643799 2.679100
							CHANNELS 3 Xrotation Yrotation Zrotation
							End Site
							{
								OFFSET 0.000000 10.009018 0.000000
							}
						}
					}
				}
			}
			JOINT LBackpack_Strap
			{
				OFFSET 15.223200 -7.719803 -6.610900
				CHANNELS 3 Xrotation Yrotation Zrotation
				End Site
				{
					OFFSET 0.000000 16.040596 0.000000
				}
			}
			JOINT RBackpack_Strap
			{
				OFFSET -15.223000 -7.719803 -6.610900
				CHANNELS 3 Xrotation Yrotation Zrotation
				End Site
				{
					OFFSET 0.000000 16.040596 0.000000
				}
			}
		}
	}
	JOINT BoyFacialAnim_Joint
	{
		OFFSET 1.000000 -82.208099 -1.550900
		CHANNELS 3 Xrotation Yrotation Zrotation
		End Site
		{
			OFFSET 0.000000 30.012791 0.000000
		}
	}
}
MOTION
Frames: 5
Frame Time: 0.033333
-0.216842 74.009010 -2.944563 1.999895 -13.213432 0.467900 -0.000000 0.000001 -0.000000 -40.715123 10.875008 12.998339 53.051978 1.306225 3.815602 -14.855088 1.395155 -7.490545 0.000000 0.000000 -0.000000 0.000000 0.000000 -0.000000 0.000001 0.000000 -0.000001 -36.216928 -15.913262 -15.211050 54.728578 -9.209380 -4.089067 -19.432361 -9.265970 11.215502 0.000000 0.000000 0.000000 0.000000 0.000000 0.000000 -0.000001 -0.000001 0.000001 8.122916 2.817873 0.867594 5.590375 2.037658 0.447195 5.601628 2.020412 0.387548 -11.323594 1.489672 2.349030 -21.336900 11.467678 -2.950928 0.000001 0.000000 -0.000000 0.000001 0.000000 -0.000000 0.000001 0.000000 -0.000000 3.412598 -8.229029 -0.855253 -53.056257 -52.277175 -69.997199 -0.000004 -40.944399 0.000007 -91.042337 -20.392435 28.184598 -1.540058 3.690191 6.142343 5.241549 24.644743 1.914194 -0.000000 -0.000002 -0.000002 0.400009 2.316890 -19.588388 0.791737 3.210658 -27.698898 -0.000005 -0.000000 -0.000000 0.399361 2.315086 -19.572390 0.792648 3.212366 -27.714941 0.000004 -0.000001 -0.000000 0.400022 2.316874 -19.588383 0.791730 3.210650 -27.698896 0.000001 -0.000003 0.000003 1.748972 6.141579 -19.177517 0.801106 -0.850379 -28.152696 0.000006 0.000001 0.000002 0.000001 0.000002 0.000003 2.345554 7.367467 -0.843662 -53.010266 64.228162 62.980942 0.000007 42.432922 -0.000010 -67.101705 -10.871198 -28.755530 60.676552 30.171623 -26.129387 7.010565 -36.783154 -1.810802 -0.000001 -0.000000 0.000001 1.119480 -3.788546 32.913285 3.460374 -6.013117 59.807930 0.000002 0.000001 0.000000 1.119477 -3.788546 32.913302 3.460374 -6.013109 59.807923 0.000001 0.000000 0.000001 1.119490 -3.788528 32.913285 3.460356 -6.013118 59.807937 0.000001 -0.000000 0.000002 1.119491 -3.788535 32.913275 3.460374 -6.013113 59.807937 0.000000 -0.000001 0.000000 0.000001 -0.000000 -0.000000 0.000002 0.000000 -0.000000 0.000002 0.000000 -0.000000 0.000002 0.000000 -0.000000 0.000002 0.000000 -0.000000 0.000002 0.000000 -0.000000 0.000000 0.000000 -0.000000 0.000002 0.000000 -0.000000 0.000002 0.000000 -0.000000 0.000000 0.000000 -0.000000 0.000002 -0.000000 -0.000000 0.000002 -0.000000 -0.000000 -0.000000 0.000001 -0.000000 
-0.161642 74.184357 -2.929603 2.153308 -13.514310 0.641034 -0.000000 0.000001 0.000000 -40.385399 10.874500 12.954944 52.413796 1.599489 3.431613 -14.611322 1.363724 -7.416080 0.000000 -0.000000 -0.000000 0.000000 -0.000000 -0.000000 0.000001 -0.000000 -0.000001 -36.173580 -15.786980 -15.120181 54.119263 -9.240122 -4.246063 -19.059860 -9.104934 11.259383 0.000000 -0.000002 0.000000 0.000000 -0.000002 0.000000 0.000001 0.000002 -0.000000 7.974131 2.832963 0.766187 5.474637 2.052210 0.382159 5.488524 2.028229 0.322792 -11.256486 1.556213 2.118551 -20.910774 11.452165 -2.969293 0.000000 0.000000 0.000000 0.000000 0.000000 0.000000 0.000000 0.000000 0.000000 3.307186 -7.955173 -1.590582 -52.708454 -52.875209 -69.799233 -0.000009 -40.454162 -0.000022 -90.991118 -20.141586 27.913480 -1.540053 3.690192 6.142345 5.241549 24.644741 1.914193 -0.000003 -0.000000 0.000002 0.400016 2.316891 -19.588385 0.791742 3.210661 -27.698898 -0.000002 0.000000 -0.000002 0.399362 2.315085 -19.572390 0.792651 3.212362 -27.714942 0.000007 0.000001 -0.000001 0.400023 2.316873 -19.588380 0.791737 3.210653 -27.698896 0.000003 -0.000001 0.000001 1.748981 6.141575 -19.177518 0.801106 -0.850380 -28.152699 0.000001 0.000001 0.000002 0.000002 0.000002 0.000000 2.271931 7.341791 -0.717391 -53.917370 64.561509 64.276247 0.000003 41.519258 -0.000016 -67.054856 -10.618949 -28.486357 60.676552 30.171620 -26.129392 7.010560 -36.783147 -1.810801 0.000002 0.000001 -0.000000 1.119482 -3.788549 32.913288 3.460376 -6.013115 59.807930 -0.000001 0.000000 0.000000 1.119478 -3.788549 32.913302 3.460374 -6.013109 59.807923 -0.000001 0.000001 0.000002 1.119491 -3.788527 32.913288 3.460352 -6.013121 59.807944 -0.000000 0.000000 0.000000 1.119492 -3.788536 32.913271 3.460373 -6.013116 59.807937 0.000003 -0.000001 0.000000 0.000001 -0.000002 -0.000000 -0.000000 0.000000 0.000000 -0.000000 0.000000 0.000000 -0.000000 0.000000 0.000000 -0.000000 0.000000 0.000000 -0.000000 0.000000 0.000000 -0.000004 0.000000 0.000000 -0.000000 0.000000 0.000000 -0.000000 0.000000 0.000000 -0.000004 0.000000 0.000000 -0.000000 -0.000001 0.000000 -0.000000 -0.000001 0.000000 -0.000000 0.000001 0.000000 
-0.096159 74.367073 -2.910148 2.261672 -13.761312 0.765401 -0.000000 0.000000 -0.000000 -40.035919 10.936941 12.933337 51.771191 1.798621 3.098414 -14.369384 1.326037 -7.300856 -0.000000 0.000000 -0.000000 -0.000000 0.000000 -0.000000 -0.000000 0.000000 -0.000001 -36.034989 -15.689923 -15.036955 53.466721 -9.272668 -4.352536 -18.673379 -8.955709 11.299989 -0.000000 -0.000000 0.000000 -0.000000 -0.000000 0.000000 -0.000000 0.000001 -0.000002 7.859792 2.876227 0.674363 5.380573 2.089196 0.326016 5.396163 2.060540 0.265357 -11.266283 1.587909 2.010117 -20.541645 11.453006 -3.024626 -0.000001 -0.000000 -0.000000 -0.000001 -0.000000 -0.000000 -0.000001 -0.000000 -0.000000 3.221994 -7.715918 -2.190629 -52.552299 -53.519283 -69.781290 -0.000000 -39.940149 0.000001 -91.075177 -19.696659 27.753669 -1.540054 3.690192 6.142348 5.241552 24.644736 1.914192 -0.000002 -0.000001 -0.000001 0.400017 2.316895 -19.588390 0.791741 3.210660 -27.698898 0.000001 -0.000000 -0.000000 0.399362 2.315088 -19.572390 0.792648 3.212370 -27.714939 0.000003 0.000001 0.000002 0.400023 2.316877 -19.588385 0.791734 3.210650 -27.698902 -0.000000 -0.000001 -0.000000 1.748976 6.141577 -19.177517 0.801101 -0.850381 -28.152694 -0.000001 0.000001 -0.000000 0.000002 0.000001 0.000002 2.211704 7.287195 -0.612833 -54.487397 64.708044 65.203854 0.000020 40.876736 -0.000005 -67.194117 -10.635047 -28.398878 60.676552 30.171623 -26.129394 7.010560 -36.783157 -1.810803 -0.000001 0.000000 -0.000001 1.119482 -3.788544 32.913285 3.460373 -6.013119 59.807930 -0.000002 0.000000 0.000002 1.119478 -3.788544 32.913302 3.460375 -6.013109 59.807923 0.000003 -0.000000 0.000001 1.119489 -3.788526 32.913281 3.460357 -6.013119 59.807937 -0.000003 0.000001 0.000002 1.119491 -3.788534 32.913271 3.460374 -6.013112 59.807937 -0.000003 -0.000000 0.000000 -0.000003 0.000000 0.000002 0.000001 0.000001 -0.000000 0.000001 0.000001 -0.000000 0.000001 0.000001 -0.000000 0.000001 0.000001 -0.000000 0.000001 0.000001 -0.000000 0.000001 0.000000 0.000000 0.000001 0.000001 -0.000000 0.000001 0.000001 -0.000000 0.000001 0.000000 0.000000 -0.000001 0.000000 -0.000000 -0.000001 0.000000 -0.000000 -0.000000 0.000000 -0.000000 
-0.020972 74.542641 -2.891760 2.259833 -13.938376 0.793938 0.000000 -0.000001 -0.000000 -39.631981 10.966074 12.919848 51.186729 1.961038 2.830587 -14.152923 1.291413 -7.185053 -0.000000 0.000000 -0.000000 -0.000000 0.000000 0.000000 -0.000001 0.000000 -0.000000 -35.753626 -15.660505 -14.962115 52.814332 -9.303177 -4.392245 -18.301932 -8.809168 11.326390 0.000000 -0.000002 -0.000000 0.000000 -0.000002 -0.000000 0.000000 -0.000000 0.000002 7.817923 2.930672 0.607773 5.342177 2.135438 0.292751 5.358436 2.105471 0.230137 -11.361787 1.595754 2.005700 -20.257412 11.485735 -3.047242 -0.000000 -0.000000 -0.000000 -0.000000 -0.000000 -0.000000 -0.000000 -0.000000 -0.000000 3.165627 -7.544823 -2.557020 -52.691569 -53.952545 -70.026952 0.000009 -39.463129 0.000010 -91.173832 -19.087536 27.722724 -1.540047 3.690186 6.142344 5.241551 24.644735 1.914195 -0.000004 0.000001 0.000001 0.400016 2.316888 -19.588387 0.791745 3.210661 -27.698898 -0.000001 -0.000001 0.000002 0.399366 2.315083 -19.572392 0.792646 3.212366 -27.714942 0.000002 -0.000000 0.000000 0.400023 2.316873 -19.588381 0.791736 3.210648 -27.698896 -0.000001 0.000000 -0.000000 1.748979 6.141572 -19.177517 0.801102 -0.850377 -28.152694 -0.000002 -0.000002 0.000005 0.000000 -0.000005 -0.000002 2.175478 7.190501 -0.522238 -54.980369 64.705524 65.938298 -0.000013 40.407027 0.000023 -67.405245 -10.926409 -28.390335 60.676552 30.171626 -26.129392 7.010560 -36.783157 -1.810801 0.000003 -0.000001 0.000001 1.119482 -3.788546 32.913285 3.460372 -6.013117 59.807930 -0.000002 -0.000001 0.000003 1.119478 -3.788546 32.913302 3.460372 -6.013111 59.807923 -0.000000 0.000001 0.000002 1.119489 -3.788525 32.913285 3.460353 -6.013118 59.807937 0.000001 -0.000000 0.000000 1.119493 -3.788534 32.913278 3.460374 -6.013115 59.807930 -0.000001 -0.000002 0.000002 0.000003 -0.000001 -0.000000 -0.000001 -0.000000 -0.000000 -0.000001 -0.000000 -0.000000 -0.000001 -0.000000 -0.000000 -0.000001 -0.000000 -0.000000 -0.000001 -0.000000 -0.000000 -0.000001 0.000001 -0.000000 -0.000001 -0.000000 -0.000000 -0.000001 -0.000000 -0.000000 -0.000001 0.000001 -0.000000 -0.000000 0.000002 -0.000000 -0.000000 0.000002 -0.000000 0.000000 -0.000001 -0.000000 
0.055515 74.700706 -2.879657 2.182028 -14.050451 0.765476 -0.000000 0.000000 -0.000000 -39.163847 10.739358 12.906510 50.685294 2.221376 2.411138 -13.963109 1.257653 -7.056646 0.000000 0.000000 0.000000 0.000000 0.000000 -0.000000 0.000000 -0.000000 -0.000000 -35.402677 -15.668835 -14.913592 52.219399 -9.337793 -4.363800 -17.970287 -8.676554 11.330196 0.000000 -0.000002 0.000000 0.000000 -0.000002 0.000000 0.000001 -0.000001 0.000002 7.817796 2.971588 0.553672 5.341049 2.171817 0.271764 5.357357 2.141920 0.207800 -11.474859 1.598935 2.065674 -20.073653 11.576101 -2.973614 0.000000 0.000000 -0.000000 0.000000 0.000000 -0.000000 0.000000 0.000000 -0.000000 3.140416 -7.459407 -2.646088 -53.054253 -53.959024 -70.514320 0.000013 -39.078951 0.000012 -91.101323 -18.515318 27.748316 -1.540056 3.690192 6.142347 5.241546 24.644736 1.914191 -0.000000 -0.000003 -0.000003 0.400011 2.316894 -19.588385 0.791744 3.210660 -27.698900 -0.000001 0.000001 -0.000003 0.399362 2.315087 -19.572389 0.792650 3.212370 -27.714941 0.000004 -0.000001 0.000004 0.400023 2.316879 -19.588383 0.791734 3.210652 -27.698895 -0.000003 -0.000002 0.000001 1.748975 6.141580 -19.177515 0.801105 -0.850375 -28.152696 0.000001 -0.000001 0.000001 0.000002 -0.000001 0.000000 2.168972 7.046004 -0.439826 -55.619050 64.673408 66.713695 -0.000020 39.955080 0.000018 -67.531378 -11.258092 -28.291823 60.676552 30.171623 -26.129392 7.010560 -36.783154 -1.810802 0.000002 0.000000 0.000000 1.119480 -3.788546 32.913285 3.460375 -6.013115 59.807930 -0.000002 -0.000000 0.000002 1.119476 -3.788546 32.913298 3.460373 -6.013109 59.807916 -0.000001 0.000001 0.000002 1.119489 -3.788529 32.913285 3.460352 -6.013121 59.807944 -0.000002 0.000002 -0.000001 1.119490 -3.788532 32.913271 3.460373 -6.013119 59.807937 -0.000001 -0.000000 0.000002 0.000003 0.000000 0.000001 0.000004 0.000000 -0.000000 0.000004 0.000000 -0.000000 0.000004 0.000000 -0.000000 0.000004 0.000000 -0.000000 0.000004 0.000000 -0.000000 0.000002 0.000000 -0.000000 0.000004 0.000000 -0.000000 0.000004 0.000000 -0.000000 0.000002 0.000000 -0.000000 0.000001 0.000001 -0.000000 0.000001 0.000001 -0.000000 -0.000000 0.000000 -0.000000 
